HIERARCHY
ROOT Hips
{
  OFFSET 5.84602e-005 68.8428 3.50346
  CHANNELS 6 Xposition Yposition Zposition Zrotation Xrotation Yrotation
  JOINT Spine
  {
    OFFSET 0 8.597 -4.6522
    CHANNELS 3 Zrotation Xrotation Yrotation
    JOINT Spine1
    {
      OFFSET 0 7.8454 0.4098
      CHANNELS 3 Zrotation Xrotation Yrotation
      JOINT Spine2
      {
        OFFSET 0 9.7078 -2.1609
        CHANNELS 3 Zrotation Xrotation Yrotation
        JOINT Neck
        {
          OFFSET 0 21.8761 -0.4549
          CHANNELS 3 Zrotation Xrotation Yrotation
          JOINT Head
          {
            OFFSET 0 12.3537 3.3602
            CHANNELS 3 Zrotation Xrotation Yrotation
            End Site
            {
              OFFSET 0.0001 18.9506 0.5657
            }
          }
        }
        JOINT LeftShoulder
        {
          OFFSET 2.2086 21.1115 7.2329
          CHANNELS 3 Zrotation Xrotation Yrotation
          JOINT LeftArm
          {
            OFFSET 13.1193 3.0282 -4.8998
            CHANNELS 3 Zrotation Xrotation Yrotation
            JOINT LeftForeArm
            {
              OFFSET 27.4081 -0.0973053 -0.2375
              CHANNELS 3 Zrotation Xrotation Yrotation
              JOINT LeftHand
              {
                OFFSET 22.8641 0.0662994 -0.1369
                CHANNELS 3 Zrotation Xrotation Yrotation
                JOINT LeftHandIndex1
                {
                  OFFSET 8.8614 0.775009 2.4612
                  CHANNELS 3 Zrotation Xrotation Yrotation
                  JOINT LeftHandIndex2
                  {
                    OFFSET 3.3146 -0.808304 0.5841
                    CHANNELS 3 Zrotation Xrotation Yrotation
                    JOINT LeftHandIndex3
                    {
                      OFFSET 2.2628 -0.552002 0.3989
                      CHANNELS 3 Zrotation Xrotation Yrotation
                      End Site
                      {
                        OFFSET 1.6102 -0.4807 0.2612
                      }
                    }
                  }
                }
                JOINT LeftHandMiddle1
                {
                  OFFSET 8.9937 0.895004 0.2143
                  CHANNELS 3 Zrotation Xrotation Yrotation
                  JOINT LeftHandMiddle2
                  {
                    OFFSET 4.0984 0.0113983 -0.0242
                    CHANNELS 3 Zrotation Xrotation Yrotation
                    JOINT LeftHandMiddle3
                    {
                      OFFSET 2.2716 0.00689697 -0.0138001
                      CHANNELS 3 Zrotation Xrotation Yrotation
                      End Site
                      {
                        OFFSET 2.0404 -0.1441 0.0027
                      }
                    }
                  }
                }
                JOINT LeftHandRing1
                {
                  OFFSET 8.5234 0.597198 -2.0164
                  CHANNELS 3 Zrotation Xrotation Yrotation
                  JOINT LeftHandRing2
                  {
                    OFFSET 3.7188 -0.188293 -0.2328
                    CHANNELS 3 Zrotation Xrotation Yrotation
                    JOINT LeftHandRing3
                    {
                      OFFSET 2.1191 -0.106598 -0.1332
                      CHANNELS 3 Zrotation Xrotation Yrotation
                      End Site
                      {
                        OFFSET 1.8737 -0.2304 -0.0886
                      }
                    }
                  }
                }
                JOINT LeftHandPinky1
                {
                  OFFSET 7.9094 -0.601089 -3.4825
                  CHANNELS 3 Zrotation Xrotation Yrotation
                  JOINT LeftHandPinky2
                  {
                    OFFSET 2.2874 -0.477005 -0.6314
                    CHANNELS 3 Zrotation Xrotation Yrotation
                    JOINT LeftHandPinky3
                    {
                      OFFSET 1.6774 -0.349396 -0.4633
                      CHANNELS 3 Zrotation Xrotation Yrotation
                      End Site
                      {
                        OFFSET 1.4888 -0.4091 -0.3416
                      }
                    }
                  }
                }
                JOINT LeftHandThumb1
                {
                  OFFSET 1.833 -1.3875 1.3896
                  CHANNELS 3 Zrotation Xrotation Yrotation
                  JOINT LeftHandThumb2
                  {
                    OFFSET 3.4129 -1.121 2.5732
                    CHANNELS 3 Zrotation Xrotation Yrotation
                    JOINT LeftHandThumb3
                    {
                      OFFSET 2.2474 -0.804199 1.6192
                      CHANNELS 3 Zrotation Xrotation Yrotation
                      End Site
                      {
                        OFFSET 1.6527 -0.5689 1.1317
                      }
                    }
                  }
                }
              }
            }
          }
        }
        JOINT RightShoulder
        {
          OFFSET -2.2086 21.1115 7.2329
          CHANNELS 3 Zrotation Xrotation Yrotation
          JOINT RightArm
          {
            OFFSET -13.1216 3.0287 -4.9007
            CHANNELS 3 Zrotation Xrotation Yrotation
            JOINT RightForeArm
            {
              OFFSET -27.4081 -0.0973053 -0.2375
              CHANNELS 3 Zrotation Xrotation Yrotation
              JOINT RightHand
              {
                OFFSET -22.8641 0.0664063 -0.1369
                CHANNELS 3 Zrotation Xrotation Yrotation
                JOINT RightHandIndex1
                {
                  OFFSET -8.8614 0.774994 2.4612
                  CHANNELS 3 Zrotation Xrotation Yrotation
                  JOINT RightHandIndex2
                  {
                    OFFSET -3.3146 -0.808304 0.5841
                    CHANNELS 3 Zrotation Xrotation Yrotation
                    JOINT RightHandIndex3
                    {
                      OFFSET -2.2628 -0.552002 0.3989
                      CHANNELS 3 Zrotation Xrotation Yrotation
                      End Site
                      {
                        OFFSET -1.6102 -0.4807 0.2612
                      }
                    }
                  }
                }
                JOINT RightHandMiddle1
                {
                  OFFSET -8.9937 0.894989 0.2143
                  CHANNELS 3 Zrotation Xrotation Yrotation
                  JOINT RightHandMiddle2
                  {
                    OFFSET -4.0984 0.0113983 -0.0242
                    CHANNELS 3 Zrotation Xrotation Yrotation
                    JOINT RightHandMiddle3
                    {
                      OFFSET -2.2716 0.00691223 -0.0138001
                      CHANNELS 3 Zrotation Xrotation Yrotation
                      End Site
                      {
                        OFFSET -2.0404 -0.1441 0.0027
                      }
                    }
                  }
                }
                JOINT RightHandRing1
                {
                  OFFSET -8.5234 0.597198 -2.0164
                  CHANNELS 3 Zrotation Xrotation Yrotation
                  JOINT RightHandRing2
                  {
                    OFFSET -3.7188 -0.188309 -0.2328
                    CHANNELS 3 Zrotation Xrotation Yrotation
                    JOINT RightHandRing3
                    {
                      OFFSET -2.1191 -0.106598 -0.1332
                      CHANNELS 3 Zrotation Xrotation Yrotation
                      End Site
                      {
                        OFFSET -1.8737 -0.2304 -0.0886
                      }
                    }
                  }
                }
                JOINT RightHandPinky1
                {
                  OFFSET -7.9094 -0.601105 -3.4825
                  CHANNELS 3 Zrotation Xrotation Yrotation
                  JOINT RightHandPinky2
                  {
                    OFFSET -2.2874 -0.477005 -0.6314
                    CHANNELS 3 Zrotation Xrotation Yrotation
                    JOINT RightHandPinky3
                    {
                      OFFSET -1.6774 -0.349396 -0.4633
                      CHANNELS 3 Zrotation Xrotation Yrotation
                      End Site
                      {
                        OFFSET -1.4888 -0.4091 -0.3416
                      }
                    }
                  }
                }
                JOINT RightHandThumb1
                {
                  OFFSET -1.833 -1.38751 1.3896
                  CHANNELS 3 Zrotation Xrotation Yrotation
                  JOINT RightHandThumb2
                  {
                    OFFSET -3.41299 -1.12099 2.5732
                    CHANNELS 3 Zrotation Xrotation Yrotation
                    JOINT RightHandThumb3
                    {
                      OFFSET -2.24741 -0.804108 1.6192
                      CHANNELS 3 Zrotation Xrotation Yrotation
                      End Site
                      {
                        OFFSET -1.6527 -0.5689 1.1317
                      }
                    }
                  }
                }
              }
            }
          }
        }
      }
    }
  }
  JOINT RightUpLeg
  {
    OFFSET -9.1966 3.8861 -0.7581
    CHANNELS 3 Zrotation Xrotation Yrotation
    JOINT RightLeg
    {
      OFFSET -0.7359 -41.0265 0
      CHANNELS 3 Zrotation Xrotation Yrotation
      JOINT RightFoot
      {
        OFFSET 0 -40.2855 0
        CHANNELS 3 Zrotation Xrotation Yrotation
        JOINT RightToeBase
        {
          OFFSET 0 -5.6122 11.7359
          CHANNELS 3 Zrotation Xrotation Yrotation
          End Site
          {
            OFFSET 0 0 7.8731
          }
        }
      }
    }
  }
  JOINT LeftUpLeg
  {
    OFFSET 9.1965 3.8864 -0.7581
    CHANNELS 3 Zrotation Xrotation Yrotation
    JOINT LeftLeg
    {
      OFFSET 0.7359 -41.0268 0
      CHANNELS 3 Zrotation Xrotation Yrotation
      JOINT LeftFoot
      {
        OFFSET 0 -40.2855 0
        CHANNELS 3 Zrotation Xrotation Yrotation
        JOINT LeftToeBase
        {
          OFFSET 0 -5.6122 11.7359
          CHANNELS 3 Zrotation Xrotation Yrotation
          End Site
          {
            OFFSET 0 0 7.8731
          }
        }
      }
    }
  }
}
MOTION
Frames:	4
Frame Time:	0.0333333
0.00739152 32.1362 6.63845 -7.78789e-015 -6.27197 180 -0.0230864 -1.24908 -0.745853 -0.0624612 -2.49776 -1.49274 -0.0624611 -2.49776 -1.49275 12.1646 42.0755 -8.22113 4.07871e-006 -30.8017 1.21895e-006 -25.3924 -8.7993 -2.566 -47.0976 1.01996 -63.2168 -44.478 54.61 0.510237 -31.428 4.099 -7.66812 6.36111e-015 -3.18055e-015 -1.11319e-014 4.77083e-015 0 -1.98785e-014 4.77083e-015 3.18055e-015 -7.95139e-015 6.36111e-015 -3.18055e-015 -1.11319e-014 -0.0145737 -8.1617e-005 -3.40492e-006 1.59028e-015 6.36111e-015 -5.56597e-015 6.36111e-015 -3.18055e-015 -1.11319e-014 -0.0187549 -0.00117348 6.00646e-005 3.18055e-015 -3.18055e-015 7.15625e-015 6.36111e-015 -3.18055e-015 -1.11319e-014 -0.0123118 -0.00325505 0.000676995 4.41391e-031 -3.18055e-015 7.95139e-015 6.36111e-015 -3.18055e-015 -1.11319e-014 4.77083e-015 0 -1.98785e-014 4.77083e-015 3.18055e-015 -7.95139e-015 -8.86083 -9.39004 -5.48588 51.3657 8.24554 86.2053 61.0496 5.4532 47.7415 22.8682 -10.3597 20.379 1.42013e-006 1.07342e-005 7.40742e-007 1.83038e-007 -1.91745e-009 9.30125e-007 8.53923e-007 -9.06753e-008 4.11645e-007 1.42013e-006 1.07342e-005 7.40742e-007 0.0150498 -7.7822e-005 8.12774e-007 1.16975e-006 2.35171e-006 7.11953e-007 1.42013e-006 1.07342e-005 7.40742e-007 0.0189956 -0.00118405 -5.97571e-005 8.53916e-007 -9.06059e-008 4.11651e-007 1.42013e-006 1.07342e-005 7.40742e-007 0.0122113 -0.00322547 -0.000672535 8.53928e-007 -9.06246e-008 4.11631e-007 1.42013e-006 1.07342e-005 7.40742e-007 1.83038e-007 -1.91745e-009 9.30125e-007 8.53923e-007 -9.06753e-008 4.11645e-007 -5.65344 -17.445 -3.32928 6.10569 26.7723 3.23894 2.12892 -15.456 -3.69456 -5.09778e-011 7.31854e-009 2.13264e-007 6.01446 -15.122 2.89414 -5.14319 22.061 -3.56849 -3.5053 -12.7192 3.92132 1.79739e-009 1.39732e-008 -4.26542e-007 
0.0073676 32.1202 6.76654 -7.83099e-015 -6.61949 180 -0.0254038 -1.31863 -0.743487 -0.0679532 -2.63684 -1.48815 -0.0679532 -2.63684 -1.48815 12.0989 41.735 -8.12283 -1.53304e-006 -29.2716 -2.554e-006 -25.3183 -8.89775 -2.33008 -47.167 1.12815 -63.352 -44.4779 54.6099 0.51024 -31.428 4.099 -7.66813 -3.08973e-031 -3.18055e-015 -5.56597e-015 -3.18055e-015 0 -2.38542e-015 1.59028e-015 3.18055e-015 7.95139e-016 -3.08973e-031 -3.18055e-015 -5.56597e-015 -0.0145874 -9.04488e-005 -1.4399e-006 1.59028e-015 6.36111e-015 9.54166e-015 -3.08973e-031 -3.18055e-015 -5.56597e-015 -0.0187208 -0.00117488 5.67577e-005 1.21438e-006 2.50608e-006 -6.33163e-007 -3.08973e-031 -3.18055e-015 -5.56597e-015 -0.0121928 -0.0032279 0.000667674 4.77083e-015 3.18055e-015 3.18055e-015 -3.08973e-031 -3.18055e-015 -5.56597e-015 -3.18055e-015 0 -2.38542e-015 1.59028e-015 3.18055e-015 7.95139e-016 -8.88718 -9.54325 -6.08213 51.3657 8.24552 86.2053 61.0497 5.45322 47.7415 24.2244 -10.3944 20.427 0 0 -3.97569e-015 2.38542e-015 -1.59028e-015 -2.38542e-015 7.95139e-016 1.59028e-015 7.95139e-016 0 0 -3.97569e-015 0.0150066 -8.5291e-005 4.14992e-007 1.59028e-015 1.59028e-015 2.18663e-015 0 0 -3.97569e-015 0.0190122 -0.00119487 -6.16283e-005 -7.95139e-016 0 9.93923e-016 0 0 -3.97569e-015 0.0122762 -0.0032555 -0.000674152 -7.95139e-016 3.18055e-015 -3.97569e-015 0 0 -3.97569e-015 2.38542e-015 -1.59028e-015 -2.38542e-015 7.95139e-016 1.59028e-015 7.95139e-016 -5.59525 -17.927 -2.92132 6.10557 26.7719 3.23919 2.11618 -15.4691 -4.13566 2.01889e-011 1.06022e-008 2.13152e-007 5.97075 -15.6108 2.49459 -5.14317 22.0608 -3.56942 -3.49876 -12.7518 4.35754 2.41182e-015 -5.46658e-016 -7.95139e-016 
0.00734558 32.1061 6.8811 -7.86962e-015 -6.93056 180 -0.0274731 -1.38078 -0.741376 -0.0728534 -2.76111 -1.48406 -0.0728534 -2.7611 -1.48406 12.0413 41.4312 -8.03594 -1.67067e-006 -27.9008 -4.35477e-006 -25.2518 -8.98537 -2.11913 -47.2288 1.22496 -63.4726 -44.4779 54.61 0.51022 -31.428 4.099 -7.66813 6.1105e-007 5.4225e-007 -1.18686e-006 2.1569e-006 2.77904e-006 -3.3728e-006 -3.18055e-015 -3.18055e-015 -3.18055e-015 6.1105e-007 5.4225e-007 -1.18686e-006 -0.0146733 -8.49183e-005 -9.69919e-007 3.18055e-015 0 -3.97569e-015 6.1105e-007 5.4225e-007 -1.18686e-006 -0.0187224 -0.00117147 6.19581e-005 7.50364e-031 -3.18055e-015 1.35174e-014 6.1105e-007 5.4225e-007 -1.18686e-006 -0.0123224 -0.00326661 0.000678857 3.18055e-015 0 2.38542e-015 6.1105e-007 5.4225e-007 -1.18686e-006 2.1569e-006 2.77904e-006 -3.3728e-006 -3.18055e-015 -3.18055e-015 -3.18055e-015 -8.91198 -9.67995 -6.61516 51.3657 8.24554 86.2053 61.0497 5.45321 47.7415 25.4388 -10.4245 20.4708 6.09092e-007 1.15518e-006 -1.75325e-007 -3.35328e-007 4.59996e-008 2.59555e-007 7.95139e-016 3.18055e-015 -1.98785e-015 6.09092e-007 1.15518e-006 -1.75325e-007 0.014986 -0.000101835 1.34213e-006 2.38542e-015 3.18055e-015 2.98177e-015 6.09092e-007 1.15518e-006 -1.75325e-007 0.0189993 -0.00119039 -5.95476e-005 -7.95139e-016 -4.77083e-015 -2.5842e-015 6.09092e-007 1.15518e-006 -1.75325e-007 0.0122612 -0.00324071 -0.000676957 -7.95139e-016 3.18055e-015 -3.97569e-016 6.09092e-007 1.15518e-006 -1.75325e-007 -3.35328e-007 4.59996e-008 2.59555e-007 7.95139e-016 3.18055e-015 -1.98785e-015 -5.54029 -18.3571 -2.55541 6.10539 26.7711 3.23945 2.10479 -15.4807 -4.52974 5.73059e-016 -1.2424e-016 -3.97569e-016 5.92882 -16.047 2.13641 -5.14309 22.06 -3.57025 -3.4928 -12.7806 4.74727 5.36138e-010 6.92586e-009 -2.13275e-007 
0.00732189 32.0922 6.99574 -7.9083e-015 -7.24155 180 -0.0295407 -1.44295 -0.739267 -0.0777461 -2.88539 -1.47999 -0.0777461 -2.88539 -1.47999 11.9844 41.127 -7.94972 -5.51311e-007 -26.5266 -1.26572e-006 -25.185 -9.07273 -1.90798 -47.2903 1.32193 -63.593 -44.4779 54.6099 0.510246 -31.428 4.099 -7.66813 -3.18055e-015 -3.18055e-015 -3.18055e-015 -7.95139e-015 3.18055e-015 6.36111e-015 -4.77083e-015 -3.18055e-015 -4.77083e-015 -3.18055e-015 -3.18055e-015 -3.18055e-015 -0.0145767 -9.03126e-005 6.48354e-007 1.59028e-015 -6.36111e-015 5.56597e-015 -3.18055e-015 -3.18055e-015 -3.18055e-015 -0.0187746 -0.00117647 6.05287e-005 1.59028e-015 3.18055e-015 4.77083e-015 -3.18055e-015 -3.18055e-015 -3.18055e-015 -0.0121786 -0.0032195 0.000669822 3.18055e-015 -6.36111e-015 -8.74653e-015 -3.18055e-015 -3.18055e-015 -3.18055e-015 -7.95139e-015 3.18055e-015 6.36111e-015 -4.77083e-015 -3.18055e-015 -4.77083e-015 -8.93809 -9.81643 -7.14864 51.3657 8.24554 86.2053 61.0496 5.45322 47.7415 26.6556 -10.4536 20.5153 -9.41931e-008 2.96411e-006 -8.00616e-007 8.54648e-007 -7.61013e-008 4.10773e-007 -9.44624e-007 -2.90541e-006 -5.4034e-007 -9.41931e-008 2.96411e-006 -8.00616e-007 0.0149757 -8.47677e-005 1.44012e-006 -5.19397e-007 2.92641e-008 -6.70481e-007 -9.41931e-008 2.96411e-006 -8.00616e-007 0.0189858 -0.00119258 -5.97628e-005 -5.194e-007 2.92395e-008 -6.70477e-007 -9.41931e-008 2.96411e-006 -8.00616e-007 0.0122677 -0.003243 -0.000675105 -5.19418e-007 2.92743e-008 -6.70467e-007 -9.41931e-008 2.96411e-006 -8.00616e-007 8.54648e-007 -7.61013e-008 4.10773e-007 -9.44624e-007 -2.90541e-006 -5.4034e-007 -5.48228 -18.787 -2.18799 6.10516 26.7701 3.23973 2.09337 -15.4921 -4.92391 -1.27925e-006 -2.15658e-008 2.15403e-007 5.88398 -16.483 1.77697 -5.143 22.0593 -3.57109 -3.48667 -12.8094 5.13713 8.49494e-016 3.72721e-017 -0 
